<?xml version="1.0" encoding="utf-8"?>
<!-- Generator: Adobe Illustrator 25.2.0, SVG Export Plug-In . SVG Version: 6.00 Build 0)  -->
<svg version="1.1" id="user" xmlns="http://www.w3.org/2000/svg" xmlns:xlink="http://www.w3.org/1999/xlink" x="0px" y="0px"
	 viewBox="0 0 205.2 205.2" style="enable-background:new 0 0 205.2 205.2;" xml:space="preserve">
<style type="text/css">
	.st0{fill:#FFFFFF;stroke:#FFFFFF;stroke-width:3.0486;stroke-miterlimit:10;}
</style>
<path class="st0" d="M102.9,89.9c-22.6,0-41.1-18.4-41.1-41.1S80.2,7.7,102.9,7.7c22.7,0,41.1,18.4,41.1,41.1S125.5,89.9,102.9,89.9
	z M102.9,15.4c-18.4,0-33.4,15-33.4,33.4s15,33.4,33.4,33.4c18.4,0,33.4-15,33.4-33.4S121.3,15.4,102.9,15.4z"/>
<path class="st0" d="M102.9,198.3c-26.2,0-43.9-5-53.9-15.2c-10.7-10.9-10.5-25.3-10.3-36.9l0-4.4c0-10.6,0-21.4,8.8-29.2
	c9.2-8.2,26.2-11.8,55.3-11.8s46.1,3.6,55.3,11.8c8.8,7.8,8.8,18.6,8.8,29l-3.8,0.4h3.8c0,2,0.1,4.1,0.2,6.2c0.4,11,1,24.6-9,35.1
	C148.4,193.3,130.3,198.3,102.9,198.3z M102.9,108.5c-26.3,0-42.7,3.2-50.2,9.9c-6.3,5.6-6.3,13.4-6.3,23.4l-0.1,4.6
	c-0.2,10.6-0.4,22.7,8.1,31.3c8.4,8.5,24.7,12.9,48.4,12.9c24.9,0,41.6-4.3,49.8-12.8c7.7-8.1,7.3-18.9,6.9-29.4
	c-0.1-2.3-0.2-4.5-0.2-6.5v-0.4c0-9.9,0-17.7-6.2-23.2C145.6,111.7,129.2,108.5,102.9,108.5z"/>
</svg>
